<svg id="Layer_1" data-name="Layer 1" xmlns="http://www.w3.org/2000/svg" viewBox="0 0 23.2 26.81"><defs><style>.cls-1{fill:#00edd9;}</style></defs><path class="cls-1" d="M22.15,6.22a4.27,4.27,0,0,0-3.12-1h-2a5,5,0,0,0-.72-2.51,5.58,5.58,0,0,0-2-1.94A5.39,5.39,0,0,0,11.61,0,5.37,5.37,0,0,0,8.83.73a5.53,5.53,0,0,0-2,1.94,5,5,0,0,0-.72,2.51H4.17a4.27,4.27,0,0,0-3.12,1A4.16,4.16,0,0,0,0,9.31V22.7a4.15,4.15,0,0,0,1.05,3.08,4.27,4.27,0,0,0,3.12,1h15.2a3.76,3.76,0,0,0,2.83-1,4.25,4.25,0,0,0,1-3.07V9.31A4.16,4.16,0,0,0,22.15,6.22ZM8.83,3.72A3,3,0,0,1,10,2.58a3.12,3.12,0,0,1,1.65-.43,3.08,3.08,0,0,1,1.63.43,3.12,3.12,0,0,1,1.14,1.14,3,3,0,0,1,.41,1.46H8.42A3,3,0,0,1,8.83,3.72Zm12,18.8A2.06,2.06,0,0,1,20.4,24a1.47,1.47,0,0,1-1.12.49h-15A1.93,1.93,0,0,1,2.85,24a2,2,0,0,1-.5-1.46v-13A2,2,0,0,1,2.85,8a2,2,0,0,1,1.42-.48H18.94A2,2,0,0,1,20.36,8a2,2,0,0,1,.5,1.46Z" transform="translate(0 0)"/></svg>
